ply
format ascii 1.0
comment Created by Blender 2.78 (sub 0) - www.blender.org, source file: ''
element vertex 92
property float x
property float y
property float z
property float nx
property float ny
property float nz
element face 62
property list uchar uint vertex_indices
end_header
163.681000 -322.220367 42.747330 -0.577349 0.577349 -0.577349
163.681000 -323.595551 42.747330 -0.301492 -0.904508 -0.301492
110.109406 -323.595551 42.747330 -0.577349 -0.577349 -0.577349
110.109406 -322.220367 42.747330 -0.577349 0.577349 -0.577349
163.681000 -322.220367 20.275637 -0.707083 0.707083 0.000000
163.681000 -323.595551 20.275637 -0.707083 -0.707083 0.000000
165.001862 -323.595551 20.275637 0.707083 -0.707083 0.000000
165.001862 -323.595551 42.747330 0.707083 -0.707083 0.000000
165.001862 -322.220367 42.747330 0.904508 0.301492 -0.301492
165.001862 -322.220367 20.275637 0.707083 0.707083 0.000000
157.737152 -322.220367 42.747330 -0.577349 0.577349 0.577349
157.737152 -323.595551 42.747330 -0.577349 -0.577349 0.577349
159.058014 -323.595551 42.747330 0.577349 -0.577349 0.577349
159.058014 -322.220367 42.747330 0.577349 0.577349 0.577349
157.737152 -322.220367 20.275637 -0.707083 0.707083 0.000000
157.737152 -323.595551 20.275637 -0.707083 -0.707083 0.000000
159.058014 -323.595551 20.275637 0.707083 -0.707083 0.000000
159.058014 -322.220367 20.275637 0.707083 0.707083 0.000000
151.793304 -322.220367 42.747330 -0.577349 0.577349 0.577349
151.793304 -323.595551 42.747330 -0.577349 -0.577349 0.577349
153.114166 -323.595551 42.747330 0.577349 -0.577349 0.577349
153.114166 -322.220367 42.747330 0.577349 0.577349 0.577349
151.793304 -322.220367 20.275637 -0.707083 0.707083 0.000000
151.793304 -323.595551 20.275637 -0.707083 -0.707083 0.000000
153.114166 -323.595551 20.275637 0.707083 -0.707083 0.000000
153.114166 -322.220367 20.275637 0.707083 0.707083 0.000000
145.849457 -322.220367 42.747330 -0.577349 0.577349 0.577349
145.849457 -323.595551 42.747330 -0.577349 -0.577349 0.577349
147.170319 -323.595551 42.747330 0.577349 -0.577349 0.577349
147.170319 -322.220367 42.747330 0.577349 0.577349 0.577349
145.849457 -322.220367 20.275637 -0.707083 0.707083 0.000000
145.849457 -323.595551 20.275637 -0.707083 -0.707083 0.000000
147.170319 -323.595551 20.275637 0.707083 -0.707083 0.000000
147.170319 -322.220367 20.275637 0.707083 0.707083 0.000000
139.905609 -322.220367 42.747330 -0.577349 0.577349 0.577349
139.905609 -323.595551 42.747330 -0.577349 -0.577349 0.577349
141.226471 -323.595551 42.747330 0.577349 -0.577349 0.577349
141.226471 -322.220367 42.747330 0.577349 0.577349 0.577349
139.905609 -322.220367 20.275637 -0.707083 0.707083 0.000000
139.905609 -323.595551 20.275637 -0.707083 -0.707083 0.000000
141.226471 -323.595551 20.275637 0.707083 -0.707083 0.000000
141.226471 -322.220367 20.275637 0.707083 0.707083 0.000000
133.961761 -322.220367 42.747330 -0.577349 0.577349 0.577349
133.961761 -323.595551 42.747330 -0.577349 -0.577349 0.577349
135.282623 -323.595551 42.747330 0.577349 -0.577349 0.577349
135.282623 -322.220367 42.747330 0.577349 0.577349 0.577349
133.961761 -322.220367 20.275637 -0.707083 0.707083 0.000000
133.961761 -323.595551 20.275637 -0.707083 -0.707083 0.000000
135.282623 -323.595551 20.275637 0.707083 -0.707083 0.000000
135.282623 -322.220367 20.275637 0.707083 0.707083 0.000000
128.017914 -322.220367 42.747330 -0.577349 0.577349 0.577349
128.017914 -323.595551 42.747330 -0.577349 -0.577349 0.577349
129.338776 -323.595551 42.747330 0.577349 -0.577349 0.577349
129.338776 -322.220367 42.747330 0.577349 0.577349 0.577349
128.017914 -322.220367 20.275637 -0.707083 0.707083 0.000000
128.017914 -323.595551 20.275637 -0.707083 -0.707083 0.000000
129.338776 -323.595551 20.275637 0.707083 -0.707083 0.000000
129.338776 -322.220367 20.275637 0.707083 0.707083 0.000000
122.074066 -322.220367 42.747330 -0.577349 0.577349 0.577349
122.074066 -323.595551 42.747330 -0.577349 -0.577349 0.577349
123.394936 -323.595551 42.747330 0.577349 -0.577349 0.577349
123.394936 -322.220367 42.747330 0.577349 0.577349 0.577349
122.074066 -322.220367 20.275637 -0.707083 0.707083 0.000000
122.074066 -323.595551 20.275637 -0.707083 -0.707083 0.000000
123.394936 -323.595551 20.275637 0.707083 -0.707083 0.000000
123.394936 -322.220367 20.275637 0.707083 0.707083 0.000000
116.130219 -322.220367 42.747330 -0.577349 0.577349 0.577349
116.130219 -323.595551 42.747330 -0.577349 -0.577349 0.577349
117.451088 -323.595551 42.747330 0.577349 -0.577349 0.577349
117.451088 -322.220367 42.747330 0.577349 0.577349 0.577349
116.130219 -322.220367 20.275637 -0.707083 0.707083 0.000000
116.130219 -323.595551 20.275637 -0.707083 -0.707083 0.000000
117.451088 -323.595551 20.275637 0.707083 -0.707083 0.000000
117.451088 -322.220367 20.275637 0.707083 0.707083 0.000000
110.186378 -322.220367 42.747330 -0.577349 0.577349 0.577349
110.186378 -323.595551 42.747330 -0.577349 -0.577349 0.577349
111.507233 -323.595551 42.747330 0.577349 -0.577349 0.577349
111.507233 -322.220367 42.747330 0.577349 0.577349 0.577349
110.186378 -322.220367 20.275637 -0.707083 0.707083 0.000000
110.186378 -323.595551 20.275637 -0.707083 -0.707083 0.000000
111.507233 -323.595551 20.275637 0.707083 -0.707083 0.000000
111.507233 -322.220367 20.275637 0.707083 0.707083 0.000000
163.681000 -322.220367 44.319111 -0.301492 0.301492 0.904508
163.681000 -323.595551 44.319111 0.000000 -0.707083 0.707083
165.001862 -323.595551 44.319111 0.577349 -0.577349 0.577349
165.001862 -322.220367 44.319111 0.707083 0.000000 0.707083
165.001862 -248.456009 44.319122 0.577349 0.577349 0.577349
163.681000 -248.456009 44.319122 -0.577349 0.577349 0.577349
110.109406 -323.595551 44.319111 -0.577349 -0.577349 0.577349
110.109406 -322.220367 44.319111 -0.577349 0.577349 0.577349
165.001862 -248.456009 42.747341 0.577349 0.577349 -0.577349
163.681000 -248.456009 42.747341 -0.577349 0.577349 -0.577349
4 0 1 2 3
4 1 0 4 5
4 5 6 7 1
4 0 8 9 4
4 6 9 8 7
4 10 11 12 13
4 14 15 11 10
4 15 16 12 11
4 17 14 10 13
4 16 17 13 12
4 18 19 20 21
4 22 23 19 18
4 23 24 20 19
4 25 22 18 21
4 24 25 21 20
4 26 27 28 29
4 30 31 27 26
4 31 32 28 27
4 33 30 26 29
4 32 33 29 28
4 34 35 36 37
4 38 39 35 34
4 39 40 36 35
4 41 38 34 37
4 40 41 37 36
4 42 43 44 45
4 46 47 43 42
4 47 48 44 43
4 49 46 42 45
4 48 49 45 44
4 50 51 52 53
4 54 55 51 50
4 55 56 52 51
4 57 54 50 53
4 56 57 53 52
4 58 59 60 61
4 62 63 59 58
4 63 64 60 59
4 65 62 58 61
4 64 65 61 60
4 66 67 68 69
4 70 71 67 66
4 71 72 68 67
4 73 70 66 69
4 72 73 69 68
4 74 75 76 77
4 78 79 75 74
4 79 80 76 75
4 81 78 74 77
4 80 81 77 76
4 82 83 84 85
4 1 7 84 83
4 82 85 86 87
4 7 8 85 84
4 3 2 88 89
4 1 83 88 2
4 82 0 3 89
4 83 82 89 88
4 90 91 87 86
4 85 8 90 86
4 8 0 91 90
4 0 82 87 91
